<svg xmlns="http://www.w3.org/2000/svg" viewBox="0 0 800 500" fill="none" role="img" aria-label="Quotation follow-up messages illustration">
  <defs>
    <linearGradient id="fu-bg" x1="0" y1="0" x2="800" y2="500" gradientUnits="userSpaceOnUse">
      <stop stop-color="#0EA5E9"/><stop offset="0.5" stop-color="#4F46E5"/><stop offset="1" stop-color="#7C3AED"/>
    </linearGradient>
  </defs>
  <rect width="800" height="500" rx="28" fill="url(#fu-bg)"/>
  <circle cx="680" cy="80" r="150" fill="#ffffff" opacity="0.06"/>
  <rect x="130" y="120" width="330" height="80" rx="20" fill="#ffffff" opacity="0.9"/>
  <rect x="155" y="148" width="180" height="12" rx="6" fill="#4F46E5" opacity="0.5"/>
  <rect x="155" y="170" width="120" height="12" rx="6" fill="#94a3b8"/>
  <rect x="340" y="240" width="330" height="80" rx="20" fill="#ffffff" opacity="0.28"/>
  <rect x="365" y="268" width="200" height="12" rx="6" fill="#ffffff" opacity="0.8"/>
  <rect x="365" y="290" width="140" height="12" rx="6" fill="#ffffff" opacity="0.5"/>
  <rect x="130" y="360" width="300" height="72" rx="20" fill="#ffffff" opacity="0.9"/>
  <rect x="155" y="386" width="150" height="12" rx="6" fill="#4F46E5" opacity="0.5"/>
  <rect x="155" y="406" width="220" height="12" rx="6" fill="#94a3b8"/>
  <circle cx="690" cy="400" r="34" fill="#22c55e"/>
  <path d="M676 400 l9 9 18 -20" stroke="#ffffff" stroke-width="6" stroke-linecap="round" stroke-linejoin="round" fill="none"/>
</svg>
