<svg xmlns="http://www.w3.org/2000/svg" viewBox="0 0 800 500" fill="none" role="img" aria-label="Common quotation mistakes illustration">
  <defs>
    <linearGradient id="mk-bg" x1="0" y1="0" x2="800" y2="500" gradientUnits="userSpaceOnUse">
      <stop stop-color="#7C3AED"/><stop offset="1" stop-color="#4F46E5"/>
    </linearGradient>
  </defs>
  <rect width="800" height="500" rx="28" fill="url(#mk-bg)"/>
  <circle cx="120" cy="120" r="150" fill="#ffffff" opacity="0.06"/>
  <rect x="220" y="110" width="360" height="280" rx="16" fill="#ffffff"/>
  <rect x="260" y="150" width="180" height="14" rx="7" fill="#e2e8f0"/>
  <g>
    <rect x="260" y="195" width="280" height="10" rx="5" fill="#fee2e2"/>
    <path d="M556 194 l14 14 M570 194 l-14 14" stroke="#ef4444" stroke-width="5" stroke-linecap="round"/>
  </g>
  <g>
    <rect x="260" y="235" width="240" height="10" rx="5" fill="#fee2e2"/>
    <path d="M556 234 l14 14 M570 234 l-14 14" stroke="#ef4444" stroke-width="5" stroke-linecap="round"/>
  </g>
  <g>
    <rect x="260" y="300" width="260" height="10" rx="5" fill="#dcfce7"/>
    <path d="M556 298 l7 9 14 -16" stroke="#22c55e" stroke-width="5" stroke-linecap="round" stroke-linejoin="round" fill="none"/>
  </g>
  <g>
    <rect x="260" y="340" width="200" height="10" rx="5" fill="#dcfce7"/>
    <path d="M556 338 l7 9 14 -16" stroke="#22c55e" stroke-width="5" stroke-linecap="round" stroke-linejoin="round" fill="none"/>
  </g>
  <circle cx="600" cy="410" r="52" fill="#f59e0b"/>
  <rect x="594" y="382" width="12" height="34" rx="6" fill="#ffffff"/>
  <circle cx="600" cy="430" r="7" fill="#ffffff"/>
</svg>
