<svg xmlns="http://www.w3.org/2000/svg" viewBox="0 0 800 500" fill="none" role="img" aria-label="Proforma invoice document illustration">
  <defs>
    <linearGradient id="pf-bg" x1="0" y1="0" x2="800" y2="500" gradientUnits="userSpaceOnUse">
      <stop stop-color="#4F46E5"/><stop offset="1" stop-color="#0EA5E9"/>
    </linearGradient>
  </defs>
  <rect width="800" height="500" rx="28" fill="url(#pf-bg)"/>
  <circle cx="660" cy="110" r="140" fill="#ffffff" opacity="0.06"/>
  <rect x="250" y="90" width="300" height="360" rx="16" fill="#ffffff"/>
  <rect x="290" y="130" width="140" height="16" rx="8" fill="#4F46E5"/>
  <rect x="290" y="160" width="90" height="10" rx="5" fill="#cbd5e1"/>
  <rect x="290" y="210" width="220" height="9" rx="4.5" fill="#e2e8f0"/>
  <rect x="290" y="234" width="220" height="9" rx="4.5" fill="#e2e8f0"/>
  <rect x="290" y="258" width="180" height="9" rx="4.5" fill="#e2e8f0"/>
  <rect x="290" y="300" width="220" height="9" rx="4.5" fill="#e2e8f0"/>
  <line x1="290" y1="340" x2="510" y2="340" stroke="#94a3b8" stroke-width="2" stroke-dasharray="6 5"/>
  <rect x="360" y="360" width="150" height="14" rx="7" fill="#7C3AED"/>
  <g transform="rotate(-14 470 250)">
    <rect x="360" y="180" width="220" height="70" rx="10" fill="none" stroke="#0EA5E9" stroke-width="5"/>
    <text x="470" y="228" font-family="system-ui,Segoe UI,sans-serif" font-size="34" font-weight="800" fill="#0EA5E9" text-anchor="middle">PROFORMA</text>
  </g>
</svg>
