<svg xmlns="http://www.w3.org/2000/svg" viewBox="0 0 800 500" fill="none" role="img" aria-label="Revising and versioning a quotation illustration">
  <defs>
    <linearGradient id="rv-bg" x1="0" y1="0" x2="800" y2="500" gradientUnits="userSpaceOnUse">
      <stop stop-color="#0EA5E9"/><stop offset="0.5" stop-color="#4F46E5"/><stop offset="1" stop-color="#7C3AED"/>
    </linearGradient>
  </defs>
  <rect width="800" height="500" rx="28" fill="url(#rv-bg)"/>
  <circle cx="150" cy="120" r="140" fill="#ffffff" opacity="0.06"/>
  <rect x="180" y="170" width="230" height="290" rx="14" fill="#ffffff" opacity="0.35"/>
  <rect x="300" y="130" width="230" height="290" rx="14" fill="#ffffff"/>
  <rect x="335" y="170" width="120" height="14" rx="7" fill="#4F46E5"/>
  <rect x="335" y="210" width="160" height="9" rx="4.5" fill="#e2e8f0"/>
  <rect x="335" y="234" width="160" height="9" rx="4.5" fill="#e2e8f0"/>
  <rect x="335" y="270" width="110" height="9" rx="4.5" fill="#fde68a"/>
  <rect x="335" y="294" width="140" height="9" rx="4.5" fill="#e2e8f0"/>
  <rect x="410" y="360" width="90" height="20" rx="10" fill="#7C3AED"/>
  <text x="455" y="375" font-family="system-ui,Segoe UI,sans-serif" font-size="14" font-weight="700" fill="#ffffff" text-anchor="middle">v2</text>
  <g transform="translate(590 250)">
    <path d="M0 0 a55 55 0 1 0 16 -40" fill="none" stroke="#ffffff" stroke-width="8" stroke-linecap="round"/>
    <path d="M16 -46 l6 26 -28 -4 z" fill="#ffffff"/>
  </g>
</svg>
