<svg xmlns="http://www.w3.org/2000/svg" viewBox="0 0 800 500" fill="none" role="img" aria-label="Terms and conditions checklist illustration">
  <defs>
    <linearGradient id="tc-bg" x1="0" y1="0" x2="800" y2="500" gradientUnits="userSpaceOnUse">
      <stop stop-color="#4F46E5"/><stop offset="0.5" stop-color="#7C3AED"/><stop offset="1" stop-color="#0EA5E9"/>
    </linearGradient>
  </defs>
  <rect width="800" height="500" rx="28" fill="url(#tc-bg)"/>
  <circle cx="140" cy="90" r="140" fill="#ffffff" opacity="0.06"/>
  <rect x="260" y="80" width="300" height="360" rx="16" fill="#ffffff"/>
  <rect x="300" y="120" width="150" height="16" rx="8" fill="#7C3AED"/>
  <g fill="#4F46E5">
    <circle cx="312" cy="185" r="12"/><circle cx="312" cy="235" r="12"/><circle cx="312" cy="285" r="12"/><circle cx="312" cy="335" r="12"/>
  </g>
  <g stroke="#ffffff" stroke-width="4" stroke-linecap="round" stroke-linejoin="round" fill="none">
    <path d="M306 185 l4 5 8 -9"/><path d="M306 235 l4 5 8 -9"/><path d="M306 285 l4 5 8 -9"/><path d="M306 335 l4 5 8 -9"/>
  </g>
  <g fill="#cbd5e1">
    <rect x="340" y="178" width="180" height="12" rx="6"/><rect x="340" y="228" width="150" height="12" rx="6"/><rect x="340" y="278" width="190" height="12" rx="6"/><rect x="340" y="328" width="130" height="12" rx="6"/>
  </g>
</svg>
