<svg viewBox="0 0 1200 630" xmlns="http://www.w3.org/2000/svg" font-family="system-ui, sans-serif">
  <rect width="1200" height="630" fill="#0f172a"/>
  <rect x="40" y="60" width="64" height="8" rx="4" fill="#f472b6"/>
  <text x="40" y="140" font-size="44" font-weight="800" fill="#f1f5f9">Wedding Photography</text>
  <text x="40" y="192" font-size="44" font-weight="800" fill="#f1f5f9">Quotation Guide</text>
  <text x="40" y="244" font-size="22" fill="#94a3b8">Packages, deliverables &amp; advance terms</text>
  <g transform="translate(730,170)">
    <g>
      <rect x="60" y="40" width="150" height="100" rx="16" fill="#1e293b" stroke="#f472b6" stroke-width="2.5"/>
      <circle cx="135" cy="90" r="30" fill="#0f172a" stroke="#f472b6" stroke-width="2.5"/>
      <circle cx="135" cy="90" r="12" fill="#f472b6" opacity="0.6"/>
      <rect x="105" y="18" width="60" height="16" rx="6" fill="#1e293b" stroke="#f472b6" stroke-width="2"/>
      <circle cx="225" cy="40" r="6" fill="#f472b6"/>
    </g>
    <g transform="translate(250,60)">
      <circle cx="0" cy="0" r="26" fill="none" stroke="#fbbf24" stroke-width="6"/>
      <circle cx="34" cy="8" r="26" fill="none" stroke="#f472b6" stroke-width="6"/>
    </g>
    <g font-size="19" transform="translate(0,220)">
      <rect x="0" y="0" width="380" height="52" rx="10" fill="#1e293b" stroke="#334155" stroke-width="1.5"/>
      <text x="18" y="34" fill="#94a3b8">Classic  <tspan fill="#f9a8d4" font-weight="700">₹45,000</tspan></text>
      <rect x="0" y="64" width="380" height="52" rx="10" fill="#f472b6" opacity="0.14"/>
      <text x="18" y="98" fill="#94a3b8">Premium  <tspan fill="#f9a8d4" font-weight="700">₹85,000</tspan></text>
      <rect x="0" y="128" width="380" height="52" rx="10" fill="#1e293b" stroke="#334155" stroke-width="1.5"/>
      <text x="18" y="162" fill="#94a3b8">Luxury  <tspan fill="#f9a8d4" font-weight="700">₹1,50,000</tspan></text>
    </g>
  </g>
  <text x="40" y="590" font-size="16" fill="#475569">QuotationMaker.in</text>
</svg>
